<svg width="170" height="150" viewBox="0 0 170 150" fill="none" xmlns="http://www.w3.org/2000/svg">
<path d="M76.4053 36.2529H16.4199C14.3203 36.2529 13.2705 35.4961 13.2705 33.9824C13.2705 33.2988 13.7588 32.0537 14.7354 30.2471C15.7119 28.4404 16.8594 26.9512 18.1777 25.7793C19.3008 24.7539 21.1074 24.2412 23.5977 24.2412H83.583C85.6826 24.2412 86.7324 24.998 86.7324 26.5117C86.7324 27.1953 86.2441 28.4404 85.2676 30.2471C84.291 32.0537 83.1436 33.543 81.8252 34.7148C80.7021 35.7402 78.8955 36.2529 76.4053 36.2529ZM41.3223 124.583L41.249 45.042C41.249 43.2842 41.835 42.1367 43.0068 41.5996C44.2275 41.0137 46.083 40.7207 48.5732 40.7207C51.3076 40.7207 53.2119 41.0137 54.2861 41.5996C55.4092 42.1367 55.9707 43.2842 55.9707 45.042V116.819C55.9707 118.919 55.4824 120.555 54.5059 121.727C53.2363 123.24 51.4785 124.632 49.2324 125.901C47.0352 127.122 45.2529 127.732 43.8857 127.732C42.1768 127.732 41.3223 126.683 41.3223 124.583Z" fill="#5DA3C0"/>
<path d="M99.7412 107.005V33.6895C99.7412 31.6387 100.254 30.0029 101.279 28.7822C102.549 27.2686 104.282 25.9014 106.479 24.6807C108.677 23.4111 110.483 22.7764 111.899 22.7764C113.608 22.7764 114.463 23.8262 114.463 25.9258V107.005C114.463 108.763 113.853 109.935 112.632 110.521C111.46 111.058 109.629 111.326 107.139 111.326C104.404 111.326 102.476 111.058 101.353 110.521C100.278 109.935 99.7412 108.763 99.7412 107.005ZM102.744 114.988H152.402C154.502 114.988 155.552 115.745 155.552 117.259C155.552 117.942 155.039 119.188 154.014 120.994C153.037 122.801 151.89 124.314 150.571 125.535C149.497 126.512 147.715 127 145.225 127H102.744C100.742 127 99.7412 125.95 99.7412 123.851V118.138C99.7412 116.038 100.742 114.988 102.744 114.988Z" fill="#5DA3C0"/>
</svg>
