<svg width="363" height="107" viewBox="0 0 363 107" fill="none" xmlns="http://www.w3.org/2000/svg">
<path d="M81.3 1.49999V14.4H48.3V105H33.3V14.4H0.45V1.49999H81.3ZM111.894 1.49999V83.1C111.894 89.4 115.144 92.55 121.644 92.55H158.694L159.444 104.1C152.744 104.6 145.894 104.9 138.894 105C131.994 105.1 125.144 105.15 118.344 105.15C110.744 105.15 105.294 103.3 101.994 99.6C98.6941 95.8 97.0441 91.05 97.0441 85.35V1.49999H111.894ZM184.731 0.449996C187.631 0.449996 189.081 1.9 189.081 4.79999V13.35C189.081 16.25 187.631 17.7 184.731 17.7H177.981C175.081 17.7 173.631 16.25 173.631 13.35V4.79999C173.631 1.9 175.081 0.449996 177.981 0.449996H184.731ZM188.481 31.8V105H174.231V31.8H188.481ZM223.717 31.8L224.917 43.2C230.317 39 235.717 35.75 241.117 33.45C246.617 31.15 252.067 30 257.467 30C270.767 30 277.417 36.7 277.417 50.1V105H262.867V54.3C262.867 49.7 262.067 46.55 260.467 44.85C258.967 43.05 256.467 42.15 252.967 42.15C248.867 42.15 244.767 43.1 240.667 45C236.567 46.8 231.717 49.35 226.117 52.65V105H211.717V31.8H223.717ZM330.361 30C341.661 30 349.811 32.05 354.811 36.15C359.911 40.15 362.461 46.1 362.461 54C362.461 60.6 361.011 65.7 358.111 69.3C355.211 72.9 350.461 74.7 343.861 74.7H311.311C311.811 80.1 312.861 84.25 314.461 87.15C316.161 90.05 318.561 92.05 321.661 93.15C324.761 94.25 328.661 94.8 333.361 94.8C337.161 94.8 341.411 94.65 346.111 94.35C350.811 93.95 355.161 93.5 359.161 93L360.661 102.45C358.261 103.55 355.361 104.4 351.961 105C348.561 105.6 345.061 106.05 341.461 106.35C337.861 106.65 334.561 106.8 331.561 106.8C322.961 106.8 316.061 105.55 310.861 103.05C305.661 100.45 301.861 96.35 299.461 90.75C297.061 85.05 295.861 77.55 295.861 68.25C295.861 58.65 297.061 51.05 299.461 45.45C301.861 39.85 305.561 35.9 310.561 33.6C315.661 31.2 322.261 30 330.361 30ZM330.961 41.55C326.161 41.55 322.311 42.25 319.411 43.65C316.611 44.95 314.561 47.25 313.261 50.55C311.961 53.75 311.261 58.35 311.161 64.35H340.111C343.411 64.35 345.561 63.3 346.561 61.2C347.561 59.1 348.061 56.7 348.061 54C347.961 49.6 346.611 46.45 344.011 44.55C341.511 42.55 337.161 41.55 330.961 41.55Z" fill="#5DA3C0"/>
</svg>
